<?xml version="1.0" encoding="UTF-8" standalone="no"?>
<svg width="92px" height="92px" viewBox="0 0 92 92" version="1.1" xmlns="http://www.w3.org/2000/svg" xmlns:xlink="http://www.w3.org/1999/xlink" xmlns:sketch="http://www.bohemiancoding.com/sketch/ns">
    <!-- Generator: Sketch 3.5.2 (25235) - http://www.bohemiancoding.com/sketch -->
    <title>enter</title>
    <desc>Created with Sketch.</desc>
    <defs></defs>
    <g id="Page-1" stroke="none" stroke-width="1" fill="none" fill-rule="evenodd" sketch:type="MSPage">
        <g id="Desktop-HD" sketch:type="MSArtboardGroup" transform="translate(-577.000000, -420.000000)">
            <g id="enter" sketch:type="MSLayerGroup" transform="translate(556.000000, 396.000000)">
                <circle id="Oval-3" sketch:type="MSShapeGroup" cx="70" cy="70" r="70"></circle>
                <path d="M84.6293505,28.00125 L96.4793505,28.00125 C97.3023505,28.00125 97.9743505,28.67425 97.9743505,29.49725 L97.9743505,47.87425 L111.29835,58.76625 C112.19435,59.49825 112.51635,60.65925 112.12735,61.74925 C111.73835,62.83725 110.75435,63.53125 109.59835,63.53125 L101.73135,63.53125 L101.73135,101.98025 C101.73135,105.32825 98.9903505,108.06725 95.6423505,108.06725 L82.8853505,108.06725 L82.8853505,72.65225 L59.1323505,72.65225 L67.8123505,76.09725 L67.8123505,114.64625 L52.0053505,108.37125 C51.4763505,108.16225 50.9893505,108.06825 50.4213505,108.06825 L38.6473505,108.06625 C35.2983505,108.06625 32.5593505,105.32725 32.5593505,101.97925 L32.5593505,63.53125 L24.6913505,63.53125 C23.5343505,63.53125 22.5503505,62.83725 22.1623505,61.74925 C21.7733505,60.65925 22.0963505,59.49925 22.9923505,58.76625 L42.1533505,43.10025 L62.0443505,26.83825 C65.0423505,24.38725 69.2463505,24.38725 72.2443505,26.83825 L83.1333505,35.74025 L83.1333505,29.49725 C83.1333505,28.67425 83.8073505,28.00125 84.6293505,28.00125 L84.6293505,28.00125 Z" stroke="#979797" fill="#FFFFFF" sketch:type="MSShapeGroup"></path>
                <path d="M70,90.0012074 L80.8077324,100.002415 L80.8077324,93.8797 L92.7966977,93.8797002 L92.7966977,85.8935509 L80.8077324,85.8935504 L80.8077322,80 L70,90.0012074 Z" id="Path" stroke="#979797" fill="#FFFFFF" sketch:type="MSShapeGroup"></path>
            </g>
        </g>
    </g>
</svg>