<?xml version="1.0" encoding="UTF-8" standalone="no"?>
<svg width="55px" height="55px" viewBox="0 0 55 55" version="1.1" xmlns="http://www.w3.org/2000/svg" xmlns:xlink="http://www.w3.org/1999/xlink">
    <!-- Generator: Sketch 3.6.1 (26313) - http://www.bohemiancoding.com/sketch -->
    <title>Facebook</title>
    <desc>Created with Sketch.</desc>
    <defs></defs>
    <g id="Page-1" stroke="none" stroke-width="1" fill="none" fill-rule="evenodd">
        <g id="SOCIAL-ICONS-SKETCH" transform="translate(-516.000000, -597.000000)" fill="#FFFFFF">
            <g id="FULL-WHITE" transform="translate(425.000000, 597.000000)">
                <path d="M118.709908,0.474227848 C103.850798,0.474227848 91.8047853,12.5248608 91.8047853,27.3896709 C91.8047853,42.2473924 103.850798,54.2980253 118.709908,54.2980253 C133.561933,54.2980253 145.607945,42.2473924 145.607945,27.3896709 C145.607945,12.5248608 133.561933,0.474227848 118.709908,0.474227848 L118.709908,0.474227848 Z M130.621288,40.4050633 L124.003067,40.4050633 L124.003067,30.4810127 L127.368865,30.4810127 L127.879049,26.2278481 L124.003067,26.2278481 L124.003067,23.6894177 C124.003067,22.5552405 124.307761,21.9746835 125.937515,21.9746835 L128.254601,21.9746835 L128.254601,18.2666329 C127.546012,18.2170127 126.447699,18.1106835 125.009264,18.1106835 C122.019018,18.1106835 119.751534,19.9395443 119.751534,23.2995443 L119.751534,26.2278481 L116.208589,26.2278481 L116.208589,30.4810127 L119.751534,30.4810127 L119.751534,40.4050633 L107.478773,40.4050633 C106.685153,40.4050633 106.288344,39.5608101 106.288344,38.7668861 L106.288344,15.6154937 C106.288344,14.8215696 106.685153,14.1772152 107.478773,14.1772152 L130.621288,14.1772152 C131.407822,14.1772152 131.797546,14.8215696 131.797546,15.6154937 L131.797546,38.7668861 C131.797546,39.5608101 131.407822,40.4050633 130.621288,40.4050633 Z" id="Facebook"></path>
            </g>
        </g>
    </g>
</svg>