<?xml version="1.0" encoding="UTF-8" standalone="no"?>
<svg width="55px" height="55px" viewBox="0 0 55 55" version="1.1" xmlns="http://www.w3.org/2000/svg" xmlns:xlink="http://www.w3.org/1999/xlink">
    <!-- Generator: Sketch 3.6.1 (26313) - http://www.bohemiancoding.com/sketch -->
    <title>Twitter</title>
    <desc>Created with Sketch.</desc>
    <defs></defs>
    <g id="Page-1" stroke="none" stroke-width="1" fill="none" fill-rule="evenodd">
        <g id="SOCIAL-ICONS-SKETCH" transform="translate(-881.000000, -598.000000)" fill="#FFFFFF">
            <g id="FULL-WHITE" transform="translate(425.000000, 597.000000)">
                <path d="M483.633221,1.50987342 C468.77411,1.50987342 456.728098,13.5605063 456.728098,28.4253165 C456.728098,43.283038 468.77411,55.3336709 483.633221,55.3336709 C498.485245,55.3336709 510.531258,43.283038 510.531258,28.4253165 C510.531258,13.5605063 498.485245,1.50987342 483.633221,1.50987342 L483.633221,1.50987342 Z M493.85816,22.7189873 C493.865245,22.96 493.872331,23.2010127 493.872331,23.4420253 C493.872331,30.8212658 488.394939,39.3346835 478.382577,39.3346835 C475.307301,39.3346835 472.444601,38.4060759 470.035399,36.8253165 C470.460552,36.8749367 470.892791,36.9032911 471.332117,36.9032911 C473.883037,36.9032911 476.235552,36.0101266 478.099141,34.5144304 C475.711196,34.4648101 473.70589,32.8556962 473.011472,30.636962 C473.344509,30.7007595 473.684632,30.7362025 474.03184,30.7362025 C474.534939,30.7362025 475.073466,30.6653165 475.526963,30.5377215 C473.03273,30.0273418 471.211656,27.7660759 471.211656,25.0582278 L471.211656,24.9944304 C471.920245,25.4055696 472.735123,25.6607595 473.627945,25.6891139 C472.161166,24.6896203 471.176227,22.9741772 471.176227,21.0389873 C471.176227,20.0182278 471.431319,19.0541772 471.898988,18.2318987 C474.58454,21.6131646 478.588067,23.8318987 483.115951,24.0658228 C483.016748,23.6546835 482.97069,23.2293671 482.97069,22.796962 C482.97069,19.7134177 485.40611,17.2111392 488.411236,17.2111392 C489.977218,17.2111392 491.392979,17.884557 492.385003,18.9691139 C493.625034,18.7210127 494.78712,18.2602532 495.842917,17.6151899 C495.439021,18.9194937 494.573834,20.0182278 493.447178,20.7058228 C494.552577,20.5711392 495.601288,20.2734177 496.572055,19.8268354 C495.849294,20.9468354 494.921043,21.9321519 493.85816,22.7189873 L493.85816,22.7189873 Z" id="Twitter"></path>
            </g>
        </g>
    </g>
</svg>